<?xml version="1.0" encoding="UTF-8"?><svg id="Layer_1" xmlns="http://www.w3.org/2000/svg" viewBox="0 0 600.17 61.47"><path d="m301.84,0c-16.97,0-30.73,13.76-30.73,30.73s13.76,30.73,30.73,30.73,30.73-13.76,30.73-30.73S318.81,0,301.84,0Zm19.57,35.45c-.2,3.03-2.29,5.52-2.29,5.52l3.64,3.97-6.87,6.47-3.5-3.57c-2.49,1.89-5.86,2.46-5.86,2.46v5.36h-9.3v-5.59c-1.55.4-5.86-2.22-5.86-2.22l-3.84,3.64-6.27-6.53,3.5-3.71c-1.55-1.75-2.69-6.19-2.69-6.19h-4.92v-9.09l5.39-.07c.54-3.71,2.16-6.06,2.16-6.06l-3.44-3.5,6.53-6.47,3.71,3.5c2.76-1.41,5.73-2.36,5.73-2.36l.07-5.19h9.36l.07,5.25c2.69.67,5.93,2.22,5.93,2.22l3.77-3.5,6.47,6.8-3.64,3.5c1.55,2.9,2.29,6,2.29,6h4.99v9.36h-5.12Z" fill="#fff"/><circle cx="301.84" cy="30.73" r="10.81" fill="#fff"/><line x1="347.81" x2="347.81" y2="61.47" fill="none" stroke="#fff" stroke-miterlimit="10" stroke-width="4"/><text transform="translate(358.24 47.69)" fill="#fff" font-family="MontserratItalic-BlackItalic, Montserrat" font-size="42.69" font-style="italic" font-variation-settings="&apos;wght&apos; 900" font-weight="800"><tspan x="0" y="0" letter-spacing="-.02em">C</tspan><tspan x="31.12" y="0">ogw</tspan><tspan x="132.29" y="0" letter-spacing="0em">h</tspan><tspan x="162.46" y="0">eel</tspan></text><text transform="translate(13.65 44.1)" fill="#fff" font-family="AzoSans-BoldItalic, &apos;Azo Sans&apos;" font-size="36" font-style="italic" font-weight="700"><tspan x="0" y="0">PR</tspan><tspan x="45.58" y="0" letter-spacing="-.05em">O</tspan><tspan x="72.83" y="0">VIDED </tspan><tspan x="189.54" y="0" letter-spacing="-.05em">B</tspan><tspan x="210.38" y="0">Y</tspan></text></svg>