<?xml version="1.0" encoding="UTF-8"?><svg id="Layer_1" xmlns="http://www.w3.org/2000/svg" viewBox="0 0 583.78 61.46"><path d="m288.19,0c-16.97,0-30.73,13.76-30.73,30.73s13.76,30.73,30.73,30.73,30.73-13.76,30.73-30.73S305.16,0,288.19,0Zm19.57,35.45c-.2,3.03-2.29,5.52-2.29,5.52l3.64,3.97-6.87,6.47-3.5-3.57c-2.49,1.89-5.86,2.46-5.86,2.46v5.36h-9.3v-5.59c-1.55.4-5.86-2.22-5.86-2.22l-3.84,3.64-6.27-6.53,3.5-3.71c-1.55-1.75-2.69-6.19-2.69-6.19h-4.92v-9.09l5.39-.07c.54-3.71,2.16-6.06,2.16-6.06l-3.44-3.5,6.53-6.47,3.71,3.5c2.76-1.41,5.73-2.36,5.73-2.36l.07-5.19h9.36l.07,5.25c2.69.67,5.93,2.22,5.93,2.22l3.77-3.5,6.47,6.8-3.64,3.5c1.55,2.9,2.29,6,2.29,6h4.99v9.36h-5.13Z" fill="#141a46"/><circle cx="288.19" cy="30.73" r="10.81" fill="#141a46"/><g isolation="isolate"><text transform="translate(0 44.1)" font-family="AzoSans-BoldItalic, &apos;Azo Sans&apos;" font-size="36" font-style="italic" font-weight="700" isolation="isolate"><tspan x="0" y="0">PR</tspan></text><text transform="translate(45.58 44.1)" font-family="AzoSans-BoldItalic, &apos;Azo Sans&apos;" font-size="36" font-style="italic" font-weight="700" isolation="isolate" letter-spacing="-.05em"><tspan x="0" y="0">O</tspan></text><text transform="translate(72.83 44.1)" font-family="AzoSans-BoldItalic, &apos;Azo Sans&apos;" font-size="36" font-style="italic" font-weight="700" isolation="isolate"><tspan x="0" y="0">VIDED </tspan></text><text transform="translate(189.54 44.1)" font-family="AzoSans-BoldItalic, &apos;Azo Sans&apos;" font-size="36" font-style="italic" font-weight="700" isolation="isolate" letter-spacing="-.05em"><tspan x="0" y="0">B</tspan></text><text transform="translate(210.38 44.1)" font-family="AzoSans-BoldItalic, &apos;Azo Sans&apos;" font-size="36" font-style="italic" font-weight="700" isolation="isolate"><tspan x="0" y="0">Y</tspan></text></g><line x1="332.77" y1="2.15" x2="332.77" y2="59.31" fill="none" stroke="#141a46" stroke-miterlimit="10" stroke-width="3"/><text transform="translate(346.63 48.68)" fill="#141a46" font-family="MontserratItalic-BlackItalic, Montserrat" font-size="42.69" font-style="italic" font-variation-settings="&apos;wght&apos; 900" font-weight="800"><tspan x="0" y="0" letter-spacing="-.02em">C</tspan><tspan x="31.12" y="0">ogw</tspan><tspan x="132.29" y="0" letter-spacing="0em">h</tspan><tspan x="162.48" y="0">eel</tspan></text></svg>