<?xml version="1.0" standalone="no"?>
<!DOCTYPE svg PUBLIC "-//W3C//DTD SVG 20010904//EN"
 "http://www.w3.org/TR/2001/REC-SVG-20010904/DTD/svg10.dtd">
<svg version="1.0" xmlns="http://www.w3.org/2000/svg"
 width="706.000000pt" height="544.000000pt" viewBox="0 0 706.000000 544.000000"
 preserveAspectRatio="xMidYMid meet">
<metadata>
Created by potrace 1.16, written by Peter Selinger 2001-2019
</metadata>
<g transform="translate(0.000000,544.000000) scale(0.100000,-0.100000)"
fill="#000000" stroke="none">
<path d="M3230 5429 c-127 -15 -289 -47 -421 -83 -419 -115 -823 -341 -1146
-640 l-72 -67 -123 15 c-200 26 -368 34 -506 25 -493 -32 -811 -245 -932 -624
-28 -89 -39 -299 -20 -413 55 -341 325 -746 733 -1097 l58 -50 34 -190 c61
-335 124 -533 255 -800 266 -541 694 -969 1235 -1235 241 -119 455 -190 720
-242 154 -30 714 -38 887 -13 525 75 1011 305 1423 671 l80 71 210 -9 c511
-23 787 20 1028 163 92 54 222 183 275 274 22 39 55 113 73 165 29 84 33 111
37 236 7 205 -27 351 -126 549 -120 242 -346 517 -610 747 l-63 55 -35 188
c-56 305 -110 488 -211 712 -393 872 -1207 1470 -2163 1588 -136 16 -490 19
-620 4z m575 -200 c458 -48 897 -228 1285 -527 116 -90 339 -316 431 -437 233
-306 385 -626 465 -975 13 -58 24 -110 24 -117 0 -6 -69 34 -154 90 l-153 102
-42 115 c-207 561 -611 1012 -1136 1270 -203 100 -379 157 -615 202 -157 29
-484 36 -658 14 -419 -54 -820 -225 -1147 -489 -184 -149 -383 -378 -512 -588
-110 -181 -223 -456 -264 -641 -7 -32 -15 -58 -19 -58 -3 0 -54 38 -113 85
-124 99 -118 68 -50 270 219 644 721 1194 1347 1476 409 185 856 256 1311 208z
m-2465 -759 c42 -5 21 -8 -93 -9 -536 -5 -786 -137 -804 -425 -15 -239 110
-473 403 -756 284 -273 635 -508 1149 -770 331 -168 638 -285 927 -355 233
-55 342 -69 543 -69 197 0 248 8 379 66 84 37 153 36 210 -3 127 -85 140 -296
25 -393 -66 -56 -208 -110 -359 -137 -96 -18 -413 -18 -540 0 -406 56 -824
190 -1265 405 -242 118 -365 188 -595 341 -596 396 -996 849 -1095 1239 -30
117 -34 267 -10 361 67 265 289 444 617 499 90 15 415 19 508 6z m2615 -670
c674 -104 1501 -484 2105 -966 168 -134 423 -388 518 -516 192 -257 282 -477
282 -688 0 -189 -55 -326 -180 -450 -114 -114 -261 -182 -461 -215 -100 -16
-398 -19 -499 -5 -43 6 -24 7 87 9 362 3 585 61 708 185 77 76 99 141 100 281
0 95 -4 121 -28 192 -97 282 -409 609 -887 928 -404 269 -951 538 -1340 659
-299 92 -520 130 -765 130 -197 1 -247 -8 -375 -64 -109 -48 -182 -38 -253 35
-91 94 -86 266 10 357 61 58 247 124 418 147 111 16 401 5 560 -19z m-2671
-1692 l79 -53 37 -105 c70 -203 180 -408 316 -591 90 -121 274 -313 389 -406
327 -264 722 -433 1139 -488 151 -19 421 -19 573 0 662 87 1245 456 1612 1020
127 194 240 453 292 663 12 50 25 92 29 92 3 0 54 -38 112 -84 l107 -85 -21
-73 c-49 -177 -170 -446 -278 -618 -255 -408 -604 -722 -1035 -935 -222 -110
-439 -179 -702 -226 -150 -27 -490 -37 -655 -20 -590 62 -1106 309 -1529 731
-291 291 -487 608 -619 1000 -31 94 -80 289 -80 322 0 13 18 5 78 -37 42 -29
113 -78 156 -107z"/>
</g>
</svg>
