<?xml version="1.0" encoding="UTF-8"?>
<svg id="Layer_1" data-name="Layer 1" xmlns="http://www.w3.org/2000/svg" viewBox="0 0 528.94 400.5">
  <defs>
    <style>
      .cls-1 {
        fill: #fff;
      }
    </style>
  </defs>
  <g id="Layer_1-2" data-name="Layer 1">
    <g>
      <path class="cls-1" d="m264.47,20.6c81,0,149.7,54,172,127.8,8.7,5.4,17.2,11,25.2,16.8C445.07,71.5,362.97,0,264.47,0,171.77,0,93.57,63.4,70.87,149.1c5.5,4.7,11.5,9.4,17.9,14.1C105.87,81.9,178.17,20.6,264.47,20.6Z"/>
      <path class="cls-1" d="m440.17,237.3c-17.1,81.3-89.4,142.5-175.7,142.5-81,0-149.7-54-172-127.8-8.7-5.4-17.2-11-25.2-16.8,16.6,93.8,98.7,165.3,197.2,165.3,92.7,0,170.9-63.4,193.6-149.1-5.5-4.7-11.5-9.4-17.9-14.1Z"/>
      <path class="cls-1" d="m457.77,340.3c35.1,0,59.1-12.3,67.7-34.7,11.7-30.4-8.4-62.4-27.4-83.9-24.2-27.4-61.9-54.9-103.4-75.3-70-34.4-137.1-43.9-171-24.2-4,2.3-7,6.3-8.3,11.1-1.4,4.8-1,10,1.1,14.5s5.5,7.9,9.8,9.4c4.3,1.6,8.8,1.1,12.8-1.2,20.7-12,76.2-7.2,142.2,25.2,5.1,2.5,10.2,5.2,15.2,7.9,32.4,16.6,61.4,36.6,81.7,56.2,33.7,32.6,34.5,55.7,29.3,69.4-6,15.6-26.4,23.5-60.6,23.5-6.5,0-13.5-.3-20.9-.9,11.2,2,21.8,3,31.8,3h0Z"/>
      <path class="cls-1" d="m71.17,60.2c-35.1,0-59.1,12.3-67.7,34.7-11.7,30.4,8.4,62.4,27.4,83.9,24.2,27.4,61.9,54.9,103.4,75.3,70,34.4,137.1,43.9,171,24.2,4-2.3,7-6.3,8.3-11.1,1.4-4.8,1-10-1.1-14.5s-5.5-7.9-9.8-9.4c-4.3-1.6-8.8-1.1-12.8,1.2-20.7,12-76.2,7.2-142.2-25.2-5.1-2.5-10.2-5.2-15.2-7.9-32.4-16.6-61.4-36.6-81.7-56.2-33.7-32.6-34.5-55.7-29.3-69.4,6-15.6,26.4-23.5,60.6-23.5,6.5,0,13.5.3,20.9.9-11.2-2.1-21.8-3-31.8-3h0Z"/>
    </g>
  </g>
</svg>